<?xml version="1.0" encoding="utf-8"?>
<!-- Generator: Adobe Illustrator 19.2.0, SVG Export Plug-In . SVG Version: 6.00 Build 0)  -->
<svg xmlns="http://www.w3.org/2000/svg" xmlns:xlink="http://www.w3.org/1999/xlink" version="1.1" id="mobileradio" x="0px" y="0px" viewBox="0 0 196.2524 234" enable-background="new 0 0 196.2524 234" xml:space="preserve" width="512" height="512">
<g>
	<circle fill="#D0E8FF" cx="48" cy="202" r="8"/>
	<rect x="24" y="42" fill="#D0E8FF" width="116" height="128"/>
	<path fill="#5CB0FF" d="M144.0391,22H19.9609C13.3652,22,8,27.3926,8,34.0215V190c0,19.8496,16.1367,36,35.9707,36h76.0586   C139.8633,226,156,209.8496,156,190V34.0215C156,27.3926,150.6348,22,144.0391,22z M86,206H63.4319   c-1.7891,6.8809-7.9988,12-15.4319,12c-8.8223,0-16-7.1777-16-16s7.1777-16,16-16c7.4331,0,13.6428,5.1191,15.4319,12H86V206z    M148,178H16V34h132V178z"/>
	<path fill="#1C71DA" d="M144.0391,14H132V0h-8v14H19.9609C8.9551,14,0,22.9824,0,34.0215V190c0,24.2617,19.7246,44,43.9707,44   h76.0586C144.2754,234,164,214.2617,164,190V34.0215C164,22.9824,155.0449,14,144.0391,14z M156,190   c0,19.8496-16.1367,36-35.9707,36H43.9707C24.1367,226,8,209.8496,8,190V34.0215C8,27.3926,13.3652,22,19.9609,22h124.0781   C150.6348,22,156,27.3926,156,34.0215V190z"/>
	<path fill="#1C71DA" d="M16,178h132V34H16V178z M24,42h116v128H24V42z"/>
	<path fill="#1C71DA" d="M48,186c-8.8223,0-16,7.1777-16,16s7.1777,16,16,16c7.4331,0,13.6428-5.1191,15.4319-12H86v-8H63.4319   C61.6428,191.1191,55.4331,186,48,186z M48,210c-4.4121,0-8-3.5879-8-8s3.5879-8,8-8s8,3.5879,8,8S52.4121,210,48,210z"/>
</g>
<path fill="#FF5D5D" d="M104.2524,93.8237c-1.0239,0-2.0474-0.3906-2.8286-1.1714c-1.562-1.5625-1.562-4.0947,0-5.6572  l14.1421-14.1421c1.5625-1.5615,4.0947-1.5615,5.6572,0c1.562,1.5625,1.562,4.0947,0,5.6572l-14.1421,14.1421  C106.2998,93.4331,105.2764,93.8237,104.2524,93.8237z"/>
<path fill="#FF5D5D" d="M118.3945,93.8223c-1.0239,0-2.0474-0.3906-2.8286-1.1714l-14.1421-14.1426  c-1.562-1.5625-1.562-4.0952,0-5.6572c1.5635-1.5615,4.0957-1.5605,5.6572,0l14.1421,14.1426c1.562,1.5625,1.562,4.0952,0,5.6572  C120.4419,93.4316,119.418,93.8223,118.3945,93.8223z"/>
<path fill="#00D40B" d="M182.2524,97.8237c-7.7197,0-14-6.2803-14-14s6.2803-14,14-14s14,6.2803,14,14  S189.9722,97.8237,182.2524,97.8237z M182.2524,77.8237c-3.3086,0-6,2.6914-6,6s2.6914,6,6,6s6-2.6914,6-6  S185.561,77.8237,182.2524,77.8237z"/>
<path fill="#FFC504" d="M59.5659,156.4492c-1.0239,0-2.0474-0.3906-2.8286-1.1714l-11.3135-11.3135  c-1.562-1.5625-1.562-4.0947,0-5.6572l11.3135-11.3135c1.5625-1.5615,4.0952-1.5615,5.6567,0l11.314,11.3135  c0.7505,0.7505,1.1719,1.7676,1.1719,2.8286s-0.4214,2.0781-1.1719,2.8286l-11.314,11.3135  C61.6133,156.0586,60.5894,156.4492,59.5659,156.4492z M53.9092,141.1357l5.6567,5.6567l5.6572-5.6567l-5.6572-5.6567  L53.9092,141.1357z"/>
</svg>
