<?xml version="1.0" encoding="iso-8859-1"?>
<!-- Generator: Adobe Illustrator 19.0.0, SVG Export Plug-In . SVG Version: 6.00 Build 0)  -->
<svg version="1.1" id="Layer_1" xmlns="http://www.w3.org/2000/svg" xmlns:xlink="http://www.w3.org/1999/xlink" x="0px" y="0px"
	 viewBox="0 0 512.005 512.005" style="enable-background:new 0 0 512.005 512.005;" xml:space="preserve">
<g>
	<polygon style="fill:#26B99A;" points="349.869,68.272 256.002,68.272 162.136,68.272 110.936,128.005 110.936,384.005 
		162.136,443.738 256.002,443.738 349.869,443.738 401.069,384.005 401.069,128.005 	"/>
	<polygon style="fill:#198269;" points="315.736,119.472 256.002,119.472 196.269,119.472 162.136,153.605 162.136,358.405 
		196.269,392.538 256.002,392.538 315.736,392.538 349.869,358.405 349.869,153.605 	"/>
	<g>
		<path style="fill:#F0C419;" d="M145.078,42.672c-2.756,0-5.461-1.331-7.108-3.797l-17.067-25.6
			c-2.611-3.925-1.553-9.225,2.364-11.836c3.917-2.62,9.207-1.562,11.836,2.364l17.067,25.6c2.611,3.925,1.553,9.225-2.364,11.836
			C148.346,42.211,146.699,42.672,145.078,42.672"/>
		<path style="fill:#F0C419;" d="M435.202,110.938c-2.185,0-4.369-0.836-6.033-2.5c-3.337-3.337-3.337-8.73,0-12.066l25.6-25.6
			c3.337-3.337,8.73-3.337,12.066,0s3.337,8.73,0,12.066l-25.6,25.6C439.572,110.102,437.387,110.938,435.202,110.938"/>
		<path style="fill:#F0C419;" d="M85.336,110.938c-2.185,0-4.369-0.836-6.033-2.5l-25.6-25.6c-3.337-3.337-3.337-8.73,0-12.066
			c3.337-3.337,8.73-3.337,12.066,0l25.6,25.6c3.337,3.337,3.337,8.73,0,12.066C89.705,110.102,87.52,110.938,85.336,110.938"/>
		<path style="fill:#F0C419;" d="M366.927,42.672c-1.621,0-3.268-0.461-4.727-1.434c-3.917-2.611-4.975-7.91-2.364-11.836
			l17.067-25.6c2.611-3.925,7.902-4.983,11.836-2.364c3.917,2.611,4.975,7.91,2.364,11.836l-17.067,25.6
			C372.389,41.34,369.684,42.672,366.927,42.672"/>
		<path style="fill:#F0C419;" d="M384.011,512.005c-2.756,0-5.461-1.331-7.108-3.797l-17.067-25.6
			c-2.611-3.925-1.553-9.225,2.364-11.836c3.925-2.628,9.216-1.562,11.836,2.364l17.067,25.6c2.611,3.925,1.553,9.225-2.364,11.836
			C387.279,511.544,385.632,512.005,384.011,512.005"/>
		<path style="fill:#F0C419;" d="M51.202,443.738c-2.185,0-4.369-0.836-6.033-2.5c-3.337-3.337-3.337-8.73,0-12.066l25.6-25.6
			c3.337-3.337,8.73-3.337,12.066,0c3.337,3.337,3.337,8.73,0,12.066l-25.6,25.6C55.572,442.902,53.387,443.738,51.202,443.738"/>
		<path style="fill:#F0C419;" d="M452.269,443.738c-2.185,0-4.369-0.836-6.033-2.5l-25.6-25.6c-3.337-3.337-3.337-8.73,0-12.066
			c3.337-3.337,8.73-3.337,12.066,0l25.6,25.6c3.337,3.337,3.337,8.73,0,12.066C456.638,442.902,454.454,443.738,452.269,443.738"/>
		<path style="fill:#F0C419;" d="M127.994,512.005c-1.621,0-3.268-0.461-4.727-1.434c-3.917-2.611-4.975-7.91-2.364-11.836
			l17.067-25.6c2.62-3.925,7.91-4.992,11.836-2.364c3.917,2.611,4.975,7.91,2.364,11.836l-17.067,25.6
			C133.455,510.674,130.75,512.005,127.994,512.005"/>
		<path style="fill:#F0C419;" d="M256.002,42.672c-4.71,0-8.533-3.823-8.533-8.533v-25.6c0-4.71,3.823-8.533,8.533-8.533
			c4.71,0,8.533,3.823,8.533,8.533v25.6C264.536,38.849,260.713,42.672,256.002,42.672"/>
		<path style="fill:#F0C419;" d="M256.002,512.005c-4.71,0-8.533-3.823-8.533-8.533v-25.6c0-4.71,3.823-8.533,8.533-8.533
			c4.71,0,8.533,3.823,8.533,8.533v25.6C264.536,508.182,260.713,512.005,256.002,512.005"/>
		<path style="fill:#F0C419;" d="M68.269,213.338h-25.6c-4.71,0-8.533-3.823-8.533-8.533c0-4.71,3.823-8.533,8.533-8.533h25.6
			c4.71,0,8.533,3.823,8.533,8.533C76.802,209.515,72.98,213.338,68.269,213.338"/>
		<path style="fill:#F0C419;" d="M68.269,324.272h-25.6c-4.71,0-8.533-3.823-8.533-8.533c0-4.71,3.823-8.533,8.533-8.533h25.6
			c4.71,0,8.533,3.823,8.533,8.533C76.802,320.449,72.98,324.272,68.269,324.272"/>
		<path style="fill:#F0C419;" d="M469.336,213.338h-25.6c-4.71,0-8.533-3.823-8.533-8.533c0-4.71,3.823-8.533,8.533-8.533h25.6
			c4.71,0,8.533,3.823,8.533,8.533C477.869,209.515,474.046,213.338,469.336,213.338"/>
		<path style="fill:#F0C419;" d="M469.336,324.272h-25.6c-4.71,0-8.533-3.823-8.533-8.533c0-4.71,3.823-8.533,8.533-8.533h25.6
			c4.71,0,8.533,3.823,8.533,8.533C477.869,320.449,474.046,324.272,469.336,324.272"/>
	</g>
	<g>
		<polygon style="fill:#16725A;" points="196.269,119.472 162.136,68.272 110.936,128.005 162.136,153.605 		"/>
		<polygon style="fill:#16725A;" points="315.736,119.472 349.869,68.272 401.069,128.005 349.869,153.605 		"/>
		<polygon style="fill:#16725A;" points="315.736,392.538 349.869,443.738 401.069,384.005 349.869,358.405 		"/>
		<polygon style="fill:#16725A;" points="196.269,392.538 162.136,443.738 110.936,384.005 162.136,358.405 		"/>
	</g>
	<path style="fill:#F0C419;" d="M204.802,281.605c0,28.279,22.921,51.2,51.2,51.2s51.2-22.921,51.2-51.2
		c0-21.692-25.6-34.133-25.6-34.133c-39.467-23.108,0-68.267,0-68.267S204.802,209.072,204.802,281.605"/>
</g>
<g>
</g>
<g>
</g>
<g>
</g>
<g>
</g>
<g>
</g>
<g>
</g>
<g>
</g>
<g>
</g>
<g>
</g>
<g>
</g>
<g>
</g>
<g>
</g>
<g>
</g>
<g>
</g>
<g>
</g>
</svg>
