<svg xmlns="http://www.w3.org/2000/svg" width="730" height="796"><path d="M279.3 2C278.9 2 278.6 2 278.2 2.1 278.2 2.1 278.2 2.1 278.1 2.1 277.9 2.1 277.5 2.1 277.2 2.2 277.1 2.2 277.1 2.2 277 2.2 272.6 2.9 266 6.1 254.7 12.7 233.6 25.1 167.5 48.5 135.3 54.9 116.7 58.7 104.8 63.5 95 71.4 87.5 77.5 76.1 93.9 71.1 106.1 66 118.5 59.4 141.7 59.4 147 59.4 149.9 57.2 154.5 53.8 158.9 48.1 166.4 44.8 175.5 44.8 184.1 44.8 186.9 43.7 190 42.5 191.1 37.5 195.2 34.8 204.4 34.2 219.5 33.6 231.7 32.2 238.9 27 254.8 12.6 299.3 2.6 337.9 0.2 358.2 -0.2 361.1-0.7 368.6-1.2 377 -1.2 377.4-1.2 377.7-1.2 378.1 -1.5 381.7-1.7 385.4-1.8 388.7 -2 392.6-2 395.6-2.1 398.2 -2.2 404-2 407-1.3 408.7 -1.3 408.7-1.3 408.8-1.3 408.8 -0.2 412.4 2.1 413.3 6.4 414.2 9.2 414.8 15.5 417 20.4 419 29.5 422.8 46.3 428 59.4 431.2 63.4 432.1 77.9 433.3 91.8 433.8 115.3 434.7 117.2 435 121 438.6 123.3 440.7 127.5 443.3 130.5 444.3 132.1 444.9 133.2 445.3 134 445.8 134 445.8 134 445.8 134 445.8 134.5 446.1 134.8 446.6 135.1 447.1 135.5 448.1 135.3 449.8 134.9 452.6 134.3 456.2 132.3 463.2 130.5 468.2 128.6 473.3 126.4 481.7 125.5 487.1 123.8 497.8 125 519.4 127.7 528.6 129.1 533.5 128.9 536 126.2 543.2 117.7 566.3 118.1 581.9 127.6 602 133.2 613.8 133.4 618 129.1 628.2 125.4 636.7 124.8 650.1 127.9 655.4 129.2 657.9 130.2 671.9 130.9 699.5 131.7 733.7 132.4 742.4 135.5 755.2 138.4 767.3 139.5 772.6 145 774.6 145 774.6 145 774.6 145 774.6 146.6 775.4 148.4 775.7 150.7 775.7 155 776 160.8 775.7 169.1 775.4 198.5 774.3 214.1 776.2 243.8 784.6 266.2 790.9 276.7 793.1 296.1 795.7 297.9 796 301.3 796.2 305.5 796.4 306.5 796.7 307.2 796.9 307.4 797 307.9 797.5 318.8 797.6 332.8 797.3 332.9 797.3 333 797.3 333.2 797.3 335.7 797.4 338.2 797.4 340.7 797.4 398.6 797.8 423.6 792.9 478.5 770.5 521.2 753.1 536 748.6 560.6 745.9 567.8 745.1 574.4 743.7 575.3 742.8 582.4 735.7 580.6 671.5 572.7 652.6 570.4 647.2 570.5 646.2 574.9 635.7 583 615.9 585.3 606.3 585.3 591.7 585.3 580.5 584.6 576.5 581.6 570.7 577.5 562.8 577.5 561 582.5 535.8 584.6 524.7 585.3 512.6 585.4 486L585.5 450.9 587.1 450.8 595.5 450.8C607.3 450.8 615.9 447.6 623.6 440.2 628.6 435.3 631.3 434.3 647.4 431.3 679.4 425.2 718.1 412.1 724.6 405.1 725.4 404.2 726 403.5 726.4 402.7 726.4 402.6 726.4 402.6 726.5 402.6 727.1 401.6 727.4 400.7 727.4 399.7 727.4 399 727 397.1 726.5 394.6 726 391.8 725.4 388.3 724.4 383.3 721.4 368.5 699.2 295.1 687.5 261.7 682.6 247.6 682 244.3 682.9 235.7 684.1 223.8 682 215 675.8 206.4 672.2 201.5 670.9 197.5 670.1 188.7 668.1 167.8 655.7 118.9 648.9 105.6 636.6 81.3 618.1 70.1 554.2 48.2 508.4 32.5 489.9 24.9 477.3 16.4 470.8 12.1 464.2 8 462.6 7.4 460.9 6.8 455.7 8 450.5 10.2 432.2 17.8 401.6 22.4 369 22.5 334.2 22.6 315.2 18.2 282 2.7 281.2 2.3 280.3 2.1 279.3 2z" fill="#ff72af"/><path d="M278.3 11.7C275.1 11.7 261.6 18.9 255.2 23.9 251.6 26.8 213.9 41.2 187.9 49.6 158.6 59.1 150.2 61.4 134.5 64.4 109.8 69 95.8 79.8 84.5 102.8 81.2 109.4 77.4 119.8 76 126 74.6 132.3 72.7 138.1 71.9 138.9 71 139.8 70.4 143.5 70.4 147.2 70.4 153.6 69.7 155 59.8 168.4 58.4 170.2 56.7 176.6 56 182.5 55.1 190.3 53.7 194.4 51 197.3 47.8 200.7 47 204 45.7 218 44.1 236.1 43.4 239.2 32.3 274.4 23.8 301.5 16.8 328.2 12.1 351.4 8.6 369.1 5.6 395.2 6.7 399.5 7.1 401 10.5 403.3 14.2 404.7 17.9 406 25 408.6 30 410.4 57.9 420.6 66.9 422.3 95.1 422.9L122.4 423.6 128.1 429.2C133 434.2 134.7 434.9 141.8 434.9 146.2 434.9 149.8 435.5 149.8 436.1 149.8 439.4 141.2 471.8 139.3 475.4 136 481.9 134.8 502.5 137 515.2 139.9 532.2 139.6 538.1 134.5 554.9 129.1 572.7 129.6 578.5 138.4 598.4 144.2 611.7 144.5 618.2 140.1 629.5 136.4 638.9 135.9 647.6 138.9 652.7 140.2 655.1 141.2 668.9 141.9 696 142.9 736.1 145.8 758.9 150.5 763.7 152.1 765.4 154.8 765.5 162.1 764.3 172.9 762.6 209.2 764.5 222 767.4 226.4 768.5 238.9 771.7 249.6 774.7 269 780.1 297.4 786.1 309.5 787.4 313.1 787.7 331.7 787.9 350.9 787.6 379.1 787.3 389 786.5 402.8 783.7 431.6 777.7 446 773.1 477.5 759.9 512 745.3 537.3 737.6 557.3 735.6 565.4 734.7 568.7 733.7 569.8 731.5 571.9 727.7 571.8 693 569.7 677 568.8 670.1 566.5 659.9 564.6 654.4L561.2 644.5 567.2 630.6C578.7 603.7 580.4 582.5 572 570.1 568.8 565.5 568.1 562.9 568.9 559.1 578.5 514.6 580 477.2 573.6 443.2L572.6 437.7 583.7 439C603.9 441.3 612.5 439 622.2 428.7 625.7 425 628.9 423.5 635.2 422.7 655 420 681.1 413.2 701.9 405.3 721.3 398 720.9 398.6 715.7 381.5 714 375.6 710.3 362.8 707.5 353 700.9 329.4 691.3 298.5 681.4 268.8 674.1 247.1 673.4 243.7 674.4 235.4 675.7 223.7 673.2 214.5 667.3 209.2 663.1 205.4 662.6 203.9 661.6 189.9 660.6 175.5 654.3 146.2 650.8 139.7 650 138.1 649.2 135 649.2 132.7 649.2 130.5 647.3 123.4 644.9 117 638.3 99.3 626 86.8 604.7 76.6 595.8 72.2 578.6 65.3 566.5 61.2 501.1 38.8 488 33.4 471.6 22.5 464 17.4 461.6 16.6 458.9 17.9 444.2 24.9 402.3 31.2 369.6 31.2 336.9 31.2 314 26.7 290.1 15.5 285.6 13.5 280.3 11.8 278.3 11.7zM276.1 18.2C277.1 18.2 279.3 21.1 281.1 24.5 286.9 36 304.2 57.3 314.5 65.8 334.7 82.4 358.2 90.3 376.3 86.5 395.9 82.3 412.9 73.7 430.1 59.1 438.5 51.9 454.5 34.2 459.7 26.3L462.3 22.3 469 26.8C472.7 29.2 475.7 32 475.7 32.9 475.7 36.7 465.6 54.2 457.2 64.7 440 86.3 417.6 99.4 388.2 105 352.5 111.9 319.4 101.4 291.1 74.2 275.9 59.7 260.1 36.6 260.1 29 260.1 26.7 272.7 18.2 276.1 18.2zM486.2 37.7C486.4 37.7 491.7 39.7 497.8 42.3 503.9 44.8 513.4 48.4 518.7 50.2 524.1 52.1 542.2 58.4 559.1 64.2 595.1 76.8 613.3 85.2 623.4 94.2 631.3 101.1 639.6 115.1 642.6 126.4 644.7 134.1 644.1 135.8 632.4 154.3L625.9 164.7 623.6 159.2C620.1 150.5 617 147.9 610.1 147.9 605.1 147.9 602.5 149.2 597.4 154 589.9 161.1 588.4 165.8 582.8 199.8 580.8 211.8 578.9 222 578.5 222.4 578.2 222.7 577.9 213 577.9 200.8 577.9 162.5 571.3 126.8 564.2 126.8 560.1 126.8 558.2 159.6 560.5 189.3 561.4 201.7 562.5 214.5 564.1 233.9 568 280 566.5 326.7 559.9 365.2 554.9 394.9 553.6 399.4 526 482.6 513.5 520.1 502.6 553.1 501.7 555.8 499.7 561.9 499.5 569.5 501.4 569.5 504.7 569.5 513.7 557.1 535.5 522.5L539.1 516.8 538 521.7C536.2 529.5 528.7 550.5 517.4 579.2 505.3 610.1 498.4 625.2 490.8 637.2 484.9 646.6 484.2 650.2 488 651.6 492.4 653.3 497 647 508.2 623.8 521 597.5 529.5 576 547.8 524.1 550.8 515.6 553.7 507.4 554.4 505.9 555.7 502.5 558.4 503.7 558.4 507.7 558.4 509.3 560.7 515.2 563.6 520.8 569.1 532 569.1 532.3 563.4 560.6 560.5 574.7 527.1 637 500.6 677.9 491.6 691.8 490.4 696.8 496 696.8 498.3 696.8 502 692.6 508.4 683 521.5 663.2 544 624.2 557.2 598.4 563.5 586.1 569.2 576.5 569.9 576.9 572.4 578.4 573.2 590.7 571.4 599.8 567.6 618.9 557.6 642.7 548.9 653.8 536.9 669 523.7 683.1 515.2 689.7 508.8 694.6 506.5 697.4 506.9 699.9 507.1 701.7 508.5 703.5 509.8 703.7 513.5 704.4 531.8 688.3 546.2 671.7L559.2 656.7 561.1 661.3C564 668.8 566.9 697.2 566.3 713.8L565.7 729.2 560.9 729.7C539.5 731.6 508.5 740.9 473.3 756 449.8 766 424.2 774 400.3 778.6 380.3 782.5 331.5 784.3 310.3 782 293.3 780.1 266.9 774.5 248.7 769 228.4 762.8 208.9 759.2 194.6 759.2 188.3 759.2 181.6 758.8 179.8 758.3 175.7 757.2 153.5 713.8 155.4 710.7 157.3 707.6 167.8 709.3 198.5 717.7 220.4 723.7 255.7 732.6 269 735.4 279.9 737.7 288.2 739.3 307.1 742.9 328.9 746.9 392 752.7 414.1 752.7 429.9 752.7 464.9 748.6 469.4 746.2 472 744.8 472.4 743.9 471 742.4 468.8 740.2 449.9 740.6 441.5 743 434.1 745.2 417.5 745 408.1 742.7 382.6 736.6 333.9 718.4 298.4 701.8 289.7 697.7 282.2 694.3 281.8 694.3 280.3 694.3 249.3 675.9 238.4 668.6 220.6 656.5 201.1 635 188.9 614.1 183.2 604.3 174.7 589.6 170 581.6 149.4 546.5 143.4 520.9 155.9 520.9 159.4 520.9 163.3 523.9 174.1 535.1 185.6 546.9 190.2 553.5 201.5 573.6 218.8 604.5 233.2 626.1 247 642.1 258.5 655.4 265 658.9 265 651.7 265 649.6 263.4 646.4 261.5 644.7 257.3 641 243.9 623.7 243.9 622.1 243.9 621.4 247.7 624.5 252.4 629 291 665.5 355.1 695.9 414.9 706.2 454.8 713.1 457.9 713.3 457.9 709.7 457.9 708.4 457.5 707.3 457.1 707.3 454.1 707.3 430.1 700.1 424 697.3 405.1 688.9 390.3 680.8 387.4 677.3 385.6 675.2 379 670.1 372.8 665.9 313.6 626.2 243.4 545.5 206.5 474.7 200.9 464 194.7 453.6 192.8 451.7 185.4 444.5 170.4 389.5 163 342.5 152.7 277.1 150.8 195.6 157.6 110.7 158.7 98.2 159.1 96.8 162.8 95 165 93.9 185.4 87 208.2 79.7 230.9 72.3 252.6 64.9 256.3 63.3 260 61.7 264 60.7 265.2 61.2 266.4 61.7 270.5 66.1 274.4 70.9 282.9 81.5 299.7 95.4 312.5 102.3 333.5 113.7 359.9 118.7 382.8 115.5 425 109.8 456.2 88.4 478.4 50.2 482.4 43.3 485.9 37.7 486.2 37.7zM124.4 114.9C126.6 114.5 126.7 117.4 124.4 123.3 121.6 130.6 117.8 132.1 114 127.5 112.1 125.2 112.7 124.1 118 119.2 120.9 116.6 123 115.2 124.4 114.9zM107.8 134.9C108.5 134.9 111 136.6 113.4 138.6L117.6 142.3 115.1 152.8C113.8 158.6 112.3 166.1 111.7 169.4 111.2 172.7 110.2 175.5 109.5 175.5 108 175.5 97.9 165.2 97.9 163.7 97.9 163 98.9 162.5 100.2 162.5 103.3 162.5 104.5 158.8 105.6 145.9 106.1 139.9 107.1 134.9 107.8 134.9zM647.6 149.5C649.7 149.5 654.1 170.3 656.3 190.5 658.2 207.8 658.7 209.7 662.6 212.8 668.2 217.2 670.2 224.8 668.6 235.2 667.4 242.6 667.9 245.6 673 260.2 687.7 302.9 707.9 370.5 706.3 371.9 704.6 373.5 690.8 377.5 662.3 384.8 648.6 388.3 636.4 391.2 635.2 391.2 632.5 391.2 632.4 383 634.6 349.5 635.4 336.3 636.5 289.2 636.9 244.8L637.8 164.1 642 156.8C644.4 152.8 646.9 149.5 647.6 149.5zM609.8 158C614 158 615.2 160.5 615 167.4 614.8 172.2 613.2 174.5 604.4 182.7L594 192.4 595 185.2C595.6 181.2 596.6 175.7 597.3 173.1 598.1 170.4 599.1 166.2 599.6 163.8 600.4 160.3 601.8 159.2 606.5 158.3 607.8 158.1 608.9 158 609.8 158zM92.7 175.7C93.8 175.6 96.2 177.4 100.8 181.6L109.4 189.3 107.5 195.7C105.6 202.5 106.1 236.4 109.2 299.5 110 316.5 111.4 348.8 112.4 371.3 113.3 393.9 114.5 413 115 413.8 115.5 414.6 114.4 416.1 112.7 417 104.9 421.2 58.4 416.5 53.9 411.1 52.8 409.8 52 405.4 52.1 401.2 52.1 396.6 51.1 392.4 49.6 390.7 47.5 388.3 47.4 386.9 49.2 381 53.4 366.6 65.4 352.4 82.2 341.7 87.4 338.5 92 334.7 92.5 333.5 94.7 327.9 90.6 321.6 75.2 306.6L59.2 291 60.9 284.7C61.8 281.3 64.7 270.9 67.3 261.6 69.9 252.3 72 242.8 72 240.4 72 234.3 76.3 229.1 84.3 225.7 92.3 222.3 93.2 219.3 88.9 211 86.6 206.5 86.6 204.8 88.9 192.8 90.2 185.5 91.6 178.3 91.8 176.7 91.9 176.1 92.2 175.7 92.7 175.7zM627.1 180.6C627.3 180.6 627.4 180.6 627.5 180.7 628.8 182.1 624.7 392.2 623.2 397.9 621.4 404.5 614.7 411 605.9 414.7 602.7 416 598.8 417.1 597.1 417.1 594 417.1 593.9 415.9 595 365.6 595.9 321.8 596.6 312.3 599.3 302 604.2 283.3 606.4 274.5 608.6 263.8 609.8 258.5 611.3 251.9 612 249.2 612.7 246.6 614.5 237.5 615.9 229 617.4 220.5 619.3 210.5 620.1 206.8 621 203 621.7 197.7 621.7 195 621.7 190.4 625.5 180.6 627.1 180.6zM613.9 186L613 190.9C612.5 193.6 611.6 199 611.1 203.1 609.2 216.2 597.9 271.1 596.8 272.2 596.4 272.6 595.7 270.6 595.1 267.9 594.6 265.1 593.4 263.3 592.5 263.8 591.6 264.4 590.2 267.2 589.4 270 587.4 276.9 587.2 242.8 589.1 226.2 590.3 216.1 591.4 213.2 597.8 204.3 601.8 198.7 607.1 192.3 609.5 190.1L613.9 186zM708.5 382C709.9 381.9 710.9 382.9 711.5 385.3 712 387.5 712.9 390.3 713.4 391.7 714 393.3 712.7 395 709.6 396.6 701.9 400.6 675.4 409 657.3 413.1 637.8 417.6 631.4 418.1 631.4 414.9 631.4 413.7 631.8 409.4 632.4 405.4 633.3 398.9 633.7 398.2 637.2 398.9 640.7 399.5 660 396 671.1 392.7 673.8 391.8 682.6 389.3 690.6 387 698.6 384.7 706.4 382.5 707.8 382.1 708.1 382 708.3 382 708.5 382zM129.3 383.2C129.4 383.2 129.4 383.2 129.4 383.3 130.1 383.9 133.1 393.3 136.3 404.3 139.4 415.4 142.4 425.7 142.9 427.2 143.5 429.2 142.8 430.1 140.6 430.1 134.8 430.1 131.7 426.2 131.3 418.6 131.1 414.7 130.3 404.8 129.6 396.8 128.9 389.3 128.8 383.5 129.3 383.2zM620.9 418.4C621.4 418.3 621.7 418.4 621.7 418.6 621.7 421.2 613.3 430.1 608.6 432.6 603.1 435.4 594.8 435.7 593.1 433.1 591.9 431 596.7 426.8 600.3 426.8 601.6 426.8 606.9 424.6 612.1 422 616.1 420 619.5 418.6 620.9 418.4zM151.3 456.9C151.7 457 152.1 457.8 152.7 459.2 155.3 465.5 160.8 480.7 162 484.8 162.6 486.8 162.8 488.4 162.5 488.4 162.2 488.3 158.5 485.1 154.1 481.1L146.3 473.9 148.7 464.5C150.1 459.1 150.7 456.9 151.3 456.9zM178.3 497.6C178.9 497.8 181.8 502.2 185.6 508.7 207.8 546.9 229.5 572.5 260.1 596.4 277.6 610 290.9 623 290.9 626.5 290.9 632.8 276.2 627.8 255.7 614.5 239.3 603.9 231.4 595 216.9 570.9 209.7 559 200.7 544.3 197 538.2 190.4 527.5 180.6 506.5 178.2 498.2 178.1 497.7 178.1 497.6 178.3 497.6zM136.7 568.7L139.8 576C157.7 618.9 180.1 655 197.3 668.7 204.4 674.3 249.3 697.6 253.2 697.6 254.8 697.6 276.2 706.4 282.2 709.5 284.9 710.9 288 713.1 289.2 714.5 292.2 718.2 289.9 717.7 265 709.4 245.7 703 201 684.1 171.3 669.8 160.4 664.6 150.5 660.3 149.3 660.3 148.1 660.3 145.7 656.3 144.1 651.3 141 642.3 141 642.3 144.6 632.2 149.6 618.3 149.3 609.4 143.3 596.7 140.6 590.9 138 582.2 137.6 577.4L136.7 568.7zM147.1 668.4C147.5 668.4 157.2 673 168.7 678.6 180.2 684.2 195 691.4 201.7 694.7 215.8 701.6 215.5 701.7 196 696.8 174.1 691.4 160.6 689.1 153.6 689.7L147.4 690.3 146.9 679.3C146.6 673.3 146.7 668.4 147.1 668.4z" fill-opacity="0.07"/><path d="M279.3 2C278.9 2 278.6 2 278.2 2.1 278.2 2.1 278.2 2.1 278.1 2.1 277.9 2.1 277.5 2.1 277.2 2.2 277.1 2.2 277.1 2.2 277 2.2 272.6 2.9 266 6.1 254.7 12.7 233.6 25.1 167.5 48.5 135.3 54.9 116.7 58.7 104.8 63.5 95 71.4 87.5 77.5 76.1 93.9 71.1 106.1 66 118.5 59.4 141.7 59.4 147 59.4 149.9 57.2 154.5 53.8 158.9 48.1 166.4 44.8 175.5 44.8 184.1 44.8 186.9 43.7 190 42.5 191.1 37.5 195.2 34.8 204.4 34.2 219.5 33.6 231.7 32.2 238.9 27 254.8 12.6 299.3 2.6 337.9 0.2 358.2 -0.2 361.1-0.7 368.6-1.2 377 -1.2 377.4-1.2 377.7-1.2 378.1 -1.5 381.7-1.7 385.4-1.8 388.7 -2 392.6-2 395.6-2.1 398.2 -2.2 404-2 407-1.3 408.7 -1.3 408.7-1.3 408.8-1.3 408.8 -0.2 412.4 2.1 413.3 6.4 414.2 9.2 414.8 15.5 417 20.4 419 29.5 422.8 46.3 428 59.4 431.2 63.4 432.1 77.9 433.3 91.8 433.8 115.3 434.7 117.2 435 121 438.6 123.3 440.7 127.5 443.3 130.5 444.3 132.1 444.9 133.2 445.3 134 445.8 134 445.8 134 445.8 134 445.8 134.5 446.1 134.8 446.6 135.1 447.1 135.5 448.1 135.3 449.8 134.9 452.6 134.3 456.2 132.3 463.2 130.5 468.2 128.6 473.3 126.4 481.7 125.5 487.1 123.8 497.8 125 519.4 127.7 528.6 129.1 533.5 128.9 536 126.2 543.2 117.7 566.3 118.1 581.9 127.6 602 133.2 613.8 133.4 618 129.1 628.2 125.4 636.7 124.8 650.1 127.9 655.4 129.2 657.9 130.2 671.9 130.9 699.5 131.7 733.7 132.4 742.4 135.5 755.2 138.4 767.3 139.5 772.6 145 774.6 145 774.6 145 774.6 145 774.6 146.6 775.4 148.4 775.7 150.7 775.7 155 776 160.8 775.7 169.1 775.4 198.5 774.3 214.1 776.2 243.8 784.6 266.2 790.9 276.7 793.1 296.1 795.7 297.9 796 301.3 796.2 305.5 796.4 306.5 796.7 307.2 796.9 307.4 797 307.9 797.5 318.8 797.6 332.8 797.3 332.9 797.3 333 797.3 333.2 797.3 335.7 797.4 338.2 797.4 340.7 797.4 398.6 797.8 423.6 792.9 478.5 770.5 521.2 753.1 536 748.6 560.6 745.9 567.8 745.1 574.4 743.7 575.3 742.8 582.4 735.7 580.6 671.5 572.7 652.6 570.4 647.2 570.5 646.2 574.9 635.7 583 615.9 585.3 606.3 585.3 591.7 585.3 580.5 584.6 576.5 581.6 570.7 577.5 562.8 577.5 561 582.5 535.8 584.6 524.7 585.3 512.6 585.4 486L585.5 450.9 587.1 450.8 595.5 450.8C607.3 450.8 615.9 447.6 623.6 440.2 628.6 435.3 631.3 434.3 647.4 431.3 679.4 425.2 718.1 412.1 724.6 405.1 725.4 404.2 726 403.5 726.4 402.7 726.4 402.6 726.4 402.6 726.5 402.6 727.1 401.6 727.4 400.7 727.4 399.7 727.4 399 727 397.1 726.5 394.6 726 391.8 725.4 388.3 724.4 383.3 721.4 368.5 699.2 295.1 687.5 261.7 682.6 247.6 682 244.3 682.9 235.7 684.1 223.8 682 215 675.8 206.4 672.2 201.5 670.9 197.5 670.1 188.7 668.1 167.8 655.7 118.9 648.9 105.6 636.6 81.3 618.1 70.1 554.2 48.2 508.4 32.5 489.9 24.9 477.3 16.4 470.8 12.1 464.2 8 462.6 7.4 460.9 6.8 455.7 8 450.5 10.2 432.2 17.8 401.6 22.4 369 22.5 334.2 22.6 315.2 18.2 282 2.7 281.2 2.3 280.3 2.1 279.3 2zM276.1 16.1C276.2 16.1 276.2 16.1 276.2 16.1 276.2 16.1 276.2 16.1 276.2 16.1L284 29.4C293.7 46.3 316.9 69.8 331 77.2 336.4 80 346.2 83.6 352.9 85.1 363.3 87.5 366.4 87.6 375.5 85.8 388.4 83.3 402.8 77 415.5 68.3 424.9 61.9 448.7 38.3 456.8 27.5L461 21.9 468.5 26.7C473.2 29.6 476 32.7 476 34.6 476.1 39 466.3 55.8 457.1 67.1 439.8 88.4 417.4 101.9 389.7 107.7 340.1 118 287.4 91.1 262.5 42.7 255.4 28.8 255.6 27.9 267.9 20.8L276.1 16.1zM289 22.9C290.4 23 295.3 24.5 300.9 26.5 321.1 33.7 330.3 35.7 354.3 36.2 363.6 37.1 369.6 37.1 381 36.2 407.3 35.7 424.5 33.6 440.4 29 443.4 28.2 446.1 27.7 446.5 28.1 446.8 28.4 442.5 33.6 436.9 39.5 426.5 50.5 425.8 50.8 407.1 55 397.3 57.3 356.8 58.2 343.2 56.5 336.6 55.7 325.3 53.2 318 51 304.8 47 304.8 46.9 296.4 35.3 291.7 28.9 288.3 23.3 288.6 23 288.7 22.9 288.8 22.9 289 22.9zM248.9 32.4C248.9 32.4 248.9 32.4 249 32.4L255.9 45.7C261.4 56.3 266.4 62.6 280.6 76.9 295.2 91.6 300.9 96.1 311.5 101.5 343.6 117.8 373.6 120.3 406.6 109.3 436.6 99.3 462.6 76.2 478.5 45.5 481.8 39.3 483.7 37.1 485.6 37.7 487 38.1 495.2 41.2 503.6 44.5 512.1 47.8 534.6 55.8 553.7 62.4 617.2 84.3 632.2 94.7 641.5 123.6L644.6 133.3C644.7 133.7 644.7 134 644.7 134.3 644.7 134.6 644.6 134.9 644.5 135.2L637.4 148C633.2 155.5 628.1 163.6 626 166.2 622.2 170.8 622.1 170.8 622 167.2 622 163 617.6 153.7 614.9 151.9 612 150 603.4 150.5 601.2 152.6 597.2 156.7 599 158.8 605.6 157.8 611 156.9 612.2 157.3 613.7 160.1 616.4 165.1 616 176.6 613.2 176.6 611.9 176.6 606.5 181.4 601.2 187.3 595.9 193.2 591.2 197.4 590.7 196.6 589.8 195.2 591.1 187.9 595.2 170.1 596.3 165.2 596.9 160.6 596.5 159.9 594.7 156.7 590.1 164.3 588.2 173.7 583.3 197.6 582.5 202.3 580.5 221.8 579.6 230.3 576.9 296 575 354.9 574.1 383 572.8 410.8 572.1 416.6 571.4 422.6 564.9 444.8 556.9 468.4 549.2 491.2 540.5 517.1 537.6 526 525 565.2 503 619.1 492.2 637.4 488.7 643.3 485.8 648.6 485.8 649.2 485.8 649.8 487.3 650 489.3 649.8 497 648.6 519.3 598.6 544.1 526.8 546.1 521 550.2 510.1 553.2 502.5 556.1 494.9 560.9 482 563.7 473.8 566.6 465.5 569.5 459.2 570.3 459.7 572.3 460.9 572.1 505.2 570 521.9 565.3 559.1 562.3 569.9 548.8 596.2 535.7 621.7 520.6 648.2 502.4 677.3 495.2 688.8 492.4 694.6 493.6 695.8 494.5 696.7 496 697 496.9 696.4 501.2 693.8 540 627.4 556.8 594.3 566.3 575.3 567.6 573.6 569.5 576.3 573.2 581.3 573 597 569.1 611.1 565 626 555.4 647.1 548.5 656.5 544.9 661.4 534 673.3 524.3 682.9 507.4 699.6 502.9 707 513.6 700.8 518.8 697.7 542.9 673.3 552.5 661.4L558.5 654.1 560.3 658.7C563.5 667.1 566 689.4 566.7 707.1 566.7 707.2 566.7 707.4 566.7 707.5 566.7 708.9 566.6 710.2 566.6 711.5L566.2 727.1 566.2 727.1C565.9 729 565.5 730.3 564.9 730.8 563.9 731.9 560.5 732.8 557.5 732.8 542.4 732.8 512.2 741.8 472.8 758.3 436.6 773.4 407.9 781.2 375.3 784.6 361.1 786.1 328.4 786.4 315.5 785.2 294.9 783.2 268 777.7 242.3 770 221.6 763.9 193.4 760.1 170.7 760.4 161 760.6 152.5 760.1 151.8 759.3 148.7 756 145.3 725.2 144.7 693.8 144.2 666.9 143.5 658.8 141.1 652.1 139.7 648.2 138.9 646.1 139 643.8 139 643.5 139 643.2 139 642.9 139 642.8 139 642.7 139 642.7 139.3 640.5 140.2 638 141.7 633.5 146.8 619.2 146.4 610.7 140.1 597.2 133 582 132.9 569 139.5 549.2L144.2 535 141.5 523.8C137.5 507.3 138 490.9 142.9 475.6 145.1 468.6 147.3 460.4 147.9 457.5 149 451.4 151 450.6 152.3 455.9 154.7 466 173.4 516.9 180.5 532.6 194.5 563.8 220 607.7 237.3 630.6 244.5 640.1 258.6 654.9 260.5 654.9 264 654.9 261.5 649.6 253.8 640.8 249.2 635.6 242.4 627 238.6 621.7 221.7 597.8 188.2 533.8 174.9 500.1 169.5 486.2 159.1 454.5 149.4 422.3 147 414.2 144.4 405.8 143.6 403.6 138 387.2 129.7 336.9 131.3 329.1 131.8 326.8 131.2 318.7 129.9 311.2 124 274.6 122.9 235.2 126.8 200.9 131.2 162.9 131.3 155.6 128 146.6 125.6 140.4 123.2 137.4 117.7 133.8 113.7 131.1 109.9 128 109.1 126.8 107.2 123.7 100.2 124.3 98.4 127.7 97.6 129.3 96.6 135.3 96.3 141 96 146.8 95 151.4 94.2 151.4 91.7 151.3 80 131 80 126.8 80 121.2 86.8 105.5 93.7 95.2 103.5 80.5 112.6 74.8 133.1 70.4 162.7 64 215.9 47.1 239.7 36.5L248.9 32.4zM321.5 60.3C322.1 60.2 323.4 60.4 325.4 60.8 328.5 61.3 333.5 62.6 336.6 63.6 344.9 66.2 395.9 66 403.6 63.3 407 62.1 410.2 61.5 410.6 62 411.8 63.2 398.1 71 388.1 74.8 378.3 78.5 359.7 79.9 350.6 77.6 342.8 75.6 326.4 67 322.7 62.9 321 61.1 320.4 60.3 321.5 60.3zM106.6 134.8C110.6 134.9 119 144.4 121 151.4 122.8 158.1 122.2 176.4 119.8 182.5 119.4 183.7 118.5 184.7 118 184.7 115 184.6 101.3 174.5 96.9 169.1 90.6 161.4 90.3 158.3 95.8 159.7 100.7 160.9 101.2 159.8 102.8 145.8 103.4 140.1 104.8 135.2 105.8 134.9 106.1 134.8 106.3 134.8 106.6 134.8zM646.8 146.8C647.4 146.8 647.8 147.7 648.3 149.1 651.4 157.1 655.9 181 657 194.8 658 207.5 658.5 209.3 662.7 213 668.4 218.1 669.7 222.8 668.5 235.4 667.7 244.3 668.5 247.7 676.5 271.3 684.2 293.9 707.5 369.7 707.9 373.1 707.9 373.2 707.9 373.3 707.9 373.4 706.5 374.9 685.1 381.8 672.3 384.9 666.5 386.3 659.2 388.1 656 388.9 652.9 389.7 646.9 391.3 642.7 392.3 634.8 394.3 631.9 398.7 638.5 398.7 643.2 398.7 672.1 391.6 692.3 385.5 701.1 382.8 708.9 381.2 709.5 382 710.2 382.7 711.6 385.9 712.6 389 714.3 394.1 714.2 395 711.2 397.4 706.7 401.1 677 410.8 655.2 415.7 645.4 417.9 635.4 419.8 632.9 419.8L628.3 419.8 629.2 406.4C631.2 374.7 632.2 335.7 633.2 252.8L634.2 164.8C634.3 164.5 634.5 164 634.7 163.6L640.5 154.8C644.3 149 645.9 146.7 646.8 146.8zM73.5 149C74.2 149 76.6 152.5 78.8 156.7 82.8 164.4 100.3 182.3 112.3 191.2L118.7 195.9 117.3 209.3C115.7 224.2 117 277.5 119.5 296.6 120.3 303.3 121.6 318.2 122.5 329.8 123.3 341.4 124.7 355.3 125.6 360.6 127.5 372 135.8 404.3 140.6 419.1 142.4 424.8 143.5 430.2 142.9 431.1 140.7 434.6 134.8 432.5 128.9 426.1 122.3 419 121.5 418.8 105.5 420.7 104.7 420.8 103.8 420.8 103 420.9L95.7 420.8C92 420.8 88.9 420.7 86.1 420.7 66.9 419 43.4 412.9 19.6 403.1 11.6 399.8 9.8 398.3 9.4 394.8 9.1 392.3 9.8 390.3 11.1 389.8 12.3 389.3 20.9 391.5 30.1 394.7 42 398.9 47.3 400.1 48.6 398.8 51.7 395.7 44.4 390.8 27.9 385.1 19.8 382.2 12.9 379.7 11.7 379.1 11.6 378.9 11.5 378.7 11.4 378.5 11.4 374.4 17 343.8 20.6 329.1 25 310.6 37.9 266.8 41.6 257.4 45.2 248.3 49.6 224.1 49.6 213.6 49.6 207.9 50.6 204.8 53.6 201.3 59 194.9 61 189.2 61 180.4 61 174.3 62 171.9 66.6 166.4 70.7 161.7 72.3 158.2 72.3 154.4 72.3 151.4 72.9 149 73.5 149zM627.3 178.3C627.4 178.3 627.5 178.3 627.6 178.4 628.8 179.6 625.6 386 624.3 394.7 622.8 404.2 619.3 409.1 609.6 414.9 603 419 598.5 420.4 590.1 421L579.3 421.9 580.4 415.6C582.6 402.8 584.6 343 584.5 291.7 584.5 241.6 585.9 219.2 589.7 212 592.7 206.4 610.8 184.7 612.5 184.7 613.6 184.7 613.8 187.5 613.1 193.2 610 218.2 598.1 275.4 593.7 286 592.6 288.7 590.4 296.2 588.7 302.7 586.3 312.1 586.1 314.8 587.7 316.4 589.4 318.1 590.2 317.9 591.9 315.7 593.6 313.3 600.2 288.2 609.1 250.4 611.6 239.5 615.1 220.3 617.1 205.8 618.2 198.2 619.3 190.5 619.7 188.8 620.5 185 625.6 178.1 627.3 178.3zM620.5 416.6C626.4 416.6 614.9 431.8 606.3 435.4 601.1 437.6 595.3 438 588.8 436.6 587 436.2 583.9 435.6 581.9 435.1 575.6 433.8 577.4 429.5 584.3 429.5 591.1 429.5 604.5 425.1 613.3 419.9 616.4 418.1 619.6 416.6 620.5 416.6zM189.5 455.7C186 455.5 187.2 460 194.1 473.8 231.6 548.7 301.5 629.8 368.2 675.7 379.5 683.5 388.8 685 384 678.4 383.4 677.5 375.3 671.4 366.2 664.9 344.2 649.3 332.9 639.9 311.7 619.3 270.7 579.5 229.3 524.7 203.4 475.8 197.1 463.9 192 456.1 190.3 455.8 190 455.7 189.7 455.7 189.5 455.7zM148.5 664.3C147.3 664.4 146.9 665.1 146.9 666.3 146.9 668.2 172.5 681.1 199.3 692.9 210.2 697.7 224.2 704 230.4 706.9 236.7 709.9 249.4 715 258.8 718.3 276.1 724.5 285.5 725.7 285.5 721.6 285.5 721.2 284.8 720.5 283.4 719.8 283.4 719.8 283.4 719.7 283.4 719.7 282.8 719.2 282 718.8 281.2 718.6 281.1 718.6 281.1 718.6 281.1 718.6 277.6 717 272.3 714.9 265.3 712.6 242.2 704.8 204.1 688.9 171.8 673.6 157.7 666.8 151.2 664.1 148.5 664.3z" fill="#4d4d4d"/></svg>