<?xml version="1.0" encoding="iso-8859-1"?>
<!-- Generator: Adobe Illustrator 19.0.0, SVG Export Plug-In . SVG Version: 6.00 Build 0)  -->
<svg version="1.1" id="Layer_1" xmlns="http://www.w3.org/2000/svg" xmlns:xlink="http://www.w3.org/1999/xlink" x="0px" y="0px"
	 viewBox="0 0 512 512" style="enable-background:new 0 0 512 512;" xml:space="preserve">
<g transform="translate(1 1)">
	<g>
		<path style="fill:#FFE100;" d="M265.667,84.333c-5.12,0-8.533-3.413-8.533-8.533v-9.387c-14.507-3.413-25.6-17.067-25.6-33.28
			C231.533,14.36,246.893-1,265.667-1S299.8,14.36,299.8,33.133c0,5.12-3.413,8.533-8.533,8.533s-8.533-3.413-8.533-8.533
			c0-9.387-7.68-17.067-17.067-17.067S248.6,23.747,248.6,33.133S256.28,50.2,265.667,50.2c5.12,0,8.533,3.413,8.533,8.533V75.8
			C274.2,80.92,269.933,84.333,265.667,84.333z"/>
		<path style="fill:#FFE100;" d="M332.227,131.267c-1.707,0-3.413-0.853-5.12-1.707l-61.44-43.52l-56.32,39.253
			c-4.267,2.56-9.387,1.707-11.947-1.707c-2.56-4.267-1.707-9.387,1.707-11.947l61.44-42.667c2.56-1.707,6.827-1.707,9.387,0
			l66.56,46.933c4.267,2.56,5.12,7.68,1.707,11.947C337.347,129.56,334.787,131.267,332.227,131.267z"/>
	</g>
	<path style="fill:#FDCC00;" d="M101.827,502.467h-25.6c-5.12,0-8.533-3.413-8.533-8.533v-25.6h42.667v25.6
		C110.36,499.053,106.947,502.467,101.827,502.467"/>
	<g>
		<path style="fill:#FFE100;" d="M144.493,468.333l-8.533-25.6c0,0-21.333-52.053,0-238.933c0,0-0.853-28.16-25.6-42.667l76.8-51.2
			l0,0c5.973,17.067,15.36,31.573,29.013,43.52l39.253,33.28l39.253-33.28c13.653-11.093,23.04-26.453,29.013-43.52l0,0l76.8,51.2
			c-24.747,14.507-25.6,42.667-25.6,42.667c21.333,186.88,0,238.933,0,238.933l-8.533,25.6L144.493,468.333L144.493,468.333z"/>
		<path style="fill:#FFE100;" d="M399.64,160.28l0.853,0.853c-24.747,14.507-25.6,42.667-25.6,42.667
			c7.68,68.267,10.24,106.667,9.387,135.68c0,32.427-0.853,55.467-3.413,71.68c8.533,19.627,16.213,56.32,16.213,56.32h51.2
			C463.64,304.493,424.387,161.987,399.64,160.28"/>
		<path style="fill:#FFE100;" d="M126.573,339.48c-0.853-29.013,1.707-67.413,9.387-135.68c0,0-0.853-28.16-25.6-42.667l0.853-0.853
			c-24.747,1.707-64,144.213-48.64,308.053h51.2c0,0,7.68-36.693,16.213-56.32C127.427,395.8,126.573,372.76,126.573,339.48"/>
	</g>
	<g>
		<path style="fill:#FDCC00;" d="M349.293,502.467H161.56c-5.12,0-8.533-3.413-8.533-8.533v-25.6h204.8v25.6
			C357.827,499.053,354.413,502.467,349.293,502.467"/>
		<path style="fill:#FDCC00;" d="M434.627,502.467h-25.6c-5.12,0-8.533-3.413-8.533-8.533v-25.6h42.667v25.6
			C443.16,499.053,439.747,502.467,434.627,502.467"/>
	</g>
	<g>
		<path style="fill:#FFA800;" d="M399.64,161.133l0.853,0.853c-3.413,1.707-5.973,3.413-8.533,5.973
			c23.893,29.867,52.053,157.013,39.253,301.227h17.067C463.64,305.347,424.387,162.84,399.64,161.133"/>
		<path style="fill:#FFA800;" d="M426.093,469.187v25.6c0,5.12-3.413,8.533-8.533,8.533h17.067c5.12,0,8.533-3.413,8.533-8.533
			v-25.6H426.093z"/>
	</g>
	<g>
		<path style="fill:#FFFFFF;" d="M111.213,161.133l-0.853,0.853c3.413,1.707,5.973,3.413,8.533,5.973
			C95,197.827,66.84,324.973,79.64,469.187H62.573C47.213,305.347,86.467,162.84,111.213,161.133"/>
		<path style="fill:#FFFFFF;" d="M84.76,469.187v25.6c0,5.12,3.413,8.533,8.533,8.533H76.227c-5.12,0-8.533-3.413-8.533-8.533v-25.6
			H84.76z"/>
	</g>
	<path style="fill:#FDCC00;" d="M216.173,153.453l39.253,33.28l39.253-33.28l0,0c11.093-9.387,19.627-21.333,25.6-34.133
		c-17.067,5.12-42.667,7.68-64.853,7.68s-47.787-3.413-64.853-7.68C196.547,132.12,205.08,144.067,216.173,153.453"/>
	<path style="fill:#63D3FD;" d="M281.027,306.2h-51.2c-18.773,0-34.133-15.36-34.133-34.133l0,0
		c0-18.773,15.36-34.133,34.133-34.133h51.2c18.773,0,34.133,15.36,34.133,34.133l0,0C315.16,290.84,299.8,306.2,281.027,306.2"/>
	<path d="M252.013,84.333c-5.12,0-8.533-3.413-8.533-8.533v-9.387c-14.507-3.413-25.6-17.067-25.6-33.28
		C217.88,14.36,233.24-1,252.013-1s34.133,15.36,34.133,34.133c0,5.12-3.413,8.533-8.533,8.533s-8.533-3.413-8.533-8.533
		c0-9.387-7.68-17.067-17.067-17.067s-17.067,7.68-17.067,17.067s7.68,17.067,17.067,17.067c5.12,0,8.533,3.413,8.533,8.533V75.8
		C260.547,80.92,256.28,84.333,252.013,84.333z"/>
	<path d="M366.36,476.867H144.493c-3.413,0-6.827-2.56-7.68-5.973l-8.533-25.6c-0.853-1.707-22.187-55.467-0.853-241.493
		c0-3.413-2.56-23.893-21.333-34.987c-2.56-1.707-4.267-4.267-4.267-7.68c0-2.56,1.707-5.973,3.413-7.68l76.8-51.2
		c2.56-1.707,5.12-1.707,7.68-0.853s4.267,2.56,5.12,5.12c5.12,15.36,14.507,29.013,26.453,39.253l33.28,29.013l33.28-29.013
		c11.947-10.24,21.333-23.893,26.453-39.253c0.853-2.56,2.56-4.267,5.12-5.12c2.56-0.853,5.12-0.853,7.68,0.853l76.8,51.2
		c2.56,1.707,4.267,4.267,3.413,7.68c0,2.56-1.707,5.973-4.267,6.827c-17.067,11.093-19.627,31.573-19.627,35.84
		c21.333,186.88,0,240.64-0.853,242.347l-8.533,24.747C373.187,474.307,369.773,476.867,366.36,476.867z M150.467,459.8h209.92
		l6.827-19.627c0-0.853,20.48-54.613,0-235.52V203.8c0-0.853,0.853-24.747,19.627-41.813l-58.027-38.4
		c-5.973,13.653-15.36,26.453-27.307,36.693l-39.253,33.28c-3.413,2.56-7.68,2.56-11.093,0l-39.253-33.28
		c-11.947-10.24-21.333-23.04-27.307-36.693l-59.733,37.547c18.773,17.067,19.627,40.96,19.627,42.667v0.853
		c-20.48,180.907-0.853,234.667-0.853,234.667L150.467,459.8z"/>
	<path d="M349.293,511H161.56c-9.387,0-17.067-7.68-17.067-17.067v-25.6c0-5.12,3.413-8.533,8.533-8.533h204.8
		c5.12,0,8.533,3.413,8.533,8.533v25.6C366.36,503.32,358.68,511,349.293,511z M349.293,493.933v8.533V493.933L349.293,493.933z
		 M161.56,476.867v17.067h187.733v-17.067H161.56z"/>
	<path d="M434.627,511h-25.6c-9.387,0-17.067-7.68-17.067-17.067v-25.6c0-5.12,3.413-8.533,8.533-8.533h42.667
		c5.12,0,8.533,3.413,8.533,8.533v25.6C451.693,503.32,444.013,511,434.627,511z M434.627,493.933v8.533V493.933L434.627,493.933z
		 M409.027,476.867v17.067h25.6v-17.067H409.027z"/>
	<path d="M101.827,511h-25.6c-9.387,0-17.067-7.68-17.067-17.067v-25.6c0-5.12,3.413-8.533,8.533-8.533h42.667
		c5.12,0,8.533,3.413,8.533,8.533v25.6C118.893,503.32,111.213,511,101.827,511z M101.827,493.933v8.533V493.933L101.827,493.933z
		 M76.227,476.867v17.067h25.6v-17.067H76.227z"/>
	<path d="M281.027,314.733h-51.2c-23.893,0-42.667-18.773-42.667-42.667s18.773-42.667,42.667-42.667h51.2
		c23.893,0,42.667,18.773,42.667,42.667S304.92,314.733,281.027,314.733z M229.827,246.467c-14.507,0-25.6,11.093-25.6,25.6
		s11.093,25.6,25.6,25.6h51.2c14.507,0,25.6-11.093,25.6-25.6s-11.093-25.6-25.6-25.6L229.827,246.467L229.827,246.467z"/>
	<path d="M238.36,289.133c-2.56,0-4.267-0.853-5.973-2.56l-17.067-17.067c-3.413-3.413-3.413-8.533,0-11.947s8.533-3.413,11.947,0
		l17.067,17.067c3.413,3.413,3.413,8.533,0,11.947C242.627,288.28,240.92,289.133,238.36,289.133z"/>
	<path d="M289.56,289.133c-2.56,0-4.267-0.853-5.973-2.56l-17.067-17.067c-3.413-3.413-3.413-8.533,0-11.947s8.533-3.413,11.947,0
		l17.067,17.067c3.413,3.413,3.413,8.533,0,11.947C293.827,288.28,292.12,289.133,289.56,289.133z"/>
	<path d="M255.427,195.267c-1.707,0-4.267-0.853-5.973-1.707L210.2,160.28c-2.56-2.56-5.973-5.12-9.387-9.387
		c-1.707-1.707-2.56-3.413-3.413-4.267c-1.707-1.707-2.56-3.413-4.267-5.12c-1.707-2.56-3.413-5.12-5.12-7.68l-0.853-1.707
		c-1.707-3.413-3.413-6.827-5.12-10.24s-0.853-8.533,2.56-10.24l61.44-42.667c2.56-1.707,6.827-1.707,9.387,0l66.56,46.933
		c3.413,2.56,4.267,6.827,2.56,11.093c0,0.853-0.853,0.853-0.853,1.707l-0.853,0.853l0.853,0.853
		c-6.827,11.947-14.507,21.333-23.04,29.013l-39.253,33.28C259.693,194.413,257.133,195.267,255.427,195.267z M201.667,121.027
		c0,0.853,0.853,0.853,0.853,1.707l0.853,1.707c1.707,2.56,2.56,4.267,4.267,5.973c0.853,0.853,1.707,2.56,2.56,3.413l0.853,0.853
		c0.853,0.853,1.707,2.56,3.413,3.413c2.56,3.413,5.12,5.12,7.68,7.68l33.28,29.013l33.28-29.013
		c6.827-5.973,12.8-12.8,17.92-21.333l-55.467-38.4L201.667,121.027z"/>
	<path d="M255.427,195.267c-1.707,0-4.267-0.853-5.973-1.707L210.2,160.28c-11.947-10.24-21.333-22.187-27.307-37.547
		c-1.707-3.413-0.853-6.827,1.707-9.387s5.973-3.413,8.533-2.56c15.36,4.267,40.96,7.68,62.293,7.68s46.933-3.413,62.293-7.68
		c3.413-0.853,6.827,0,8.533,2.56c2.56,2.56,2.56,5.973,1.707,9.387c-6.827,14.507-16.213,27.307-27.307,37.547L261.4,193.56
		C259.693,194.413,257.133,195.267,255.427,195.267z M207.64,131.267c4.267,5.973,8.533,10.24,13.653,15.36l33.28,29.013
		l33.28-29.013c5.12-4.267,10.24-9.387,13.653-15.36c-13.653,2.56-30.72,4.267-46.08,4.267S223,133.827,207.64,131.267z"/>
	<path d="M448.28,476.867h-51.2c-4.267,0-7.68-2.56-8.533-6.827c0,0-7.68-36.693-15.36-54.613c-0.853-1.707-0.853-2.56-0.853-4.267
		c2.56-19.627,3.413-43.52,3.413-70.827c0.853-32.427-2.56-74.24-9.387-134.827v-0.853c0-1.707,0.853-30.72,25.6-46.933
		c1.707-2.56,4.267-4.267,7.68-4.267c5.12,0,10.24,3.413,14.507,8.533c26.453,30.72,55.467,162.987,41.813,308.053
		C455.96,473.453,452.547,476.867,448.28,476.867z M403.907,459.8H440.6c12.8-153.6-21.333-273.067-39.253-289.28
		c-15.36,11.093-17.92,29.867-17.92,33.28c6.827,61.44,10.24,103.253,9.387,136.533c0,27.307-0.853,51.2-2.56,70.827
		C396.227,425.667,401.347,448.707,403.907,459.8z"/>
	<path d="M113.773,476.867h-51.2c-4.267,0-7.68-3.413-8.533-7.68C40.387,324.12,69.4,191.853,95.853,161.133
		c4.267-5.12,9.387-8.533,14.507-8.533c3.413,0,5.973,1.707,7.68,4.267c24.747,17.067,25.6,46.08,25.6,46.933v0.853
		c-6.827,61.44-10.24,102.4-9.387,134.827c0,28.16,0.853,52.053,3.413,70.827c0,1.707,0,3.413-0.853,4.267
		c-7.68,18.773-15.36,54.613-15.36,54.613C121.453,474.307,118.04,476.867,113.773,476.867z M70.253,459.8h36.693
		c2.56-11.093,7.68-34.133,14.507-49.493c-2.56-19.627-3.413-43.52-3.413-70.827c-0.853-32.427,2.56-74.24,9.387-135.68
		c0-3.413-2.56-22.187-17.92-33.28C92.44,185.88,57.453,306.2,70.253,459.8z"/>
</g>
<g>
</g>
<g>
</g>
<g>
</g>
<g>
</g>
<g>
</g>
<g>
</g>
<g>
</g>
<g>
</g>
<g>
</g>
<g>
</g>
<g>
</g>
<g>
</g>
<g>
</g>
<g>
</g>
<g>
</g>
</svg>
