<?xml version="1.0" encoding="iso-8859-1"?>
<!-- Generator: Adobe Illustrator 19.1.0, SVG Export Plug-In . SVG Version: 6.00 Build 0)  -->
<svg version="1.1" id="Capa_1" xmlns="http://www.w3.org/2000/svg" xmlns:xlink="http://www.w3.org/1999/xlink" x="0px" y="0px"
	 viewBox="0 0 470 470" style="enable-background:new 0 0 470 470;" xml:space="preserve">
<g>
	<path style="fill:#523B4D;" d="M267.919,185.566c2.934,1.928,4.138,5.634,2.897,8.918c-2.692,7.127-1.633,15.052,2.833,21.199
		c6.539,8.999,18.54,11.7,28.188,6.912c-17.572-12.36-29.087-32.777-29.087-55.845c0-24.543,13.291-47.311,34.686-59.42
		c2.172-1.23,4.815-1.298,7.048-0.181c2.233,1.117,3.764,3.271,4.083,5.748c3.413,26.425,26.115,46.353,52.807,46.353
		c9.175,0,18.223-2.374,26.164-6.863c2.174-1.229,4.816-1.295,7.048-0.179c2.232,1.118,3.763,3.273,4.082,5.749
		c0.386,2.996,0.582,5.955,0.582,8.793c0,23.068-11.515,43.485-29.087,55.845c9.648,4.788,21.649,2.087,28.188-6.912
		c4.465-6.147,5.524-14.072,2.833-21.199c-1.241-3.284-0.037-6.99,2.897-8.918c6.368-4.184,10.169-11.218,10.169-18.816
		s-3.801-14.632-10.169-18.816c-2.934-1.928-4.138-5.634-2.897-8.918c2.692-7.127,1.633-15.053-2.833-21.2
		c-4.466-6.146-11.68-9.603-19.287-9.245c-3.5,0.173-6.659-2.125-7.586-5.512c-2.012-7.348-7.526-13.137-14.752-15.485
		c-7.225-2.347-15.09-0.905-21.037,3.857c-2.74,2.194-6.637,2.194-9.377,0c-5.947-4.763-13.812-6.205-21.038-3.857
		c-7.226,2.348-12.74,8.137-14.752,15.485c-0.927,3.386-4.066,5.686-7.586,5.512c-7.615-0.355-14.821,3.099-19.287,9.245
		c-4.465,6.147-5.524,14.072-2.833,21.2c1.241,3.284,0.037,6.99-2.897,8.918c-6.368,4.184-10.169,11.218-10.169,18.816
		S261.551,181.382,267.919,185.566z"/>
	<path style="fill:#9B7064;" d="M394.129,170.351c-7.274,2.568-14.979,3.899-22.754,3.899c-30.174,0-56.372-19.879-65.135-47.818
		c-11.595,10.017-18.49,24.709-18.49,40.318c0,29.362,23.888,53.25,53.25,53.25C369.152,220,392.272,198.041,394.129,170.351z"/>
	<path style="fill:#3E2C3A;" d="M255.179,194.635c-2.215,10.335,0.014,21.166,6.335,29.865c12.154,16.729,35.652,20.449,52.38,8.296
		c0.978-0.711,1.908-1.481,2.812-2.28C324.259,233.403,332.445,235,341,235c8.555,0,16.741-1.597,24.294-4.484
		c0.903,0.799,1.834,1.569,2.812,2.28c6.642,4.826,14.35,7.148,21.992,7.148c11.606,0,23.06-5.358,30.388-15.445
		c6.321-8.699,8.55-19.529,6.335-29.865c7.867-7.06,12.429-17.131,12.429-27.885s-4.563-20.825-12.429-27.885
		c2.215-10.335-0.014-21.166-6.335-29.865c-6.32-8.699-15.932-14.166-26.446-15.253c-4.283-9.664-12.452-17.115-22.679-20.438
		c-10.227-3.323-21.216-2.095-30.361,3.204c-9.146-5.3-20.136-6.527-30.361-3.204c-10.227,3.323-18.396,10.775-22.679,20.438
		c-10.513,1.088-20.126,6.555-26.446,15.253c-6.32,8.7-8.549,19.53-6.334,29.865c-7.867,7.06-12.429,17.131-12.429,27.885
		S247.312,187.575,255.179,194.635z M267.919,147.934c2.934-1.928,4.138-5.634,2.897-8.918c-2.692-7.127-1.633-15.053,2.833-21.2
		c4.466-6.146,11.672-9.601,19.287-9.245c3.52,0.174,6.659-2.126,7.586-5.512c2.012-7.348,7.526-13.137,14.752-15.485
		c7.226-2.348,15.09-0.906,21.038,3.857c2.74,2.194,6.637,2.194,9.377,0c5.947-4.762,13.812-6.204,21.037-3.857
		c7.226,2.348,12.741,8.137,14.752,15.485c0.927,3.387,4.085,5.685,7.586,5.512c7.606-0.358,14.821,3.099,19.287,9.245
		c4.466,6.147,5.525,14.072,2.833,21.2c-1.241,3.284-0.037,6.99,2.897,8.918c6.368,4.184,10.169,11.218,10.169,18.816
		s-3.801,14.632-10.169,18.816c-2.934,1.928-4.138,5.634-2.897,8.918c2.692,7.127,1.633,15.052-2.833,21.199
		c-6.539,8.999-18.54,11.7-28.188,6.912c17.572-12.36,29.087-32.777,29.087-55.845c0-2.838-0.196-5.797-0.582-8.793
		c-0.319-2.476-1.849-4.631-4.082-5.749c-2.232-1.117-4.874-1.05-7.048,0.179c-7.941,4.49-16.988,6.863-26.164,6.863
		c-26.692,0-49.394-19.928-52.807-46.353c-0.319-2.477-1.851-4.631-4.083-5.748c-2.233-1.117-4.876-1.05-7.048,0.181
		c-21.395,12.109-34.686,34.877-34.686,59.42c0,23.068,11.515,43.485,29.087,55.845c-9.648,4.788-21.649,2.088-28.188-6.912
		c-4.465-6.147-5.524-14.072-2.833-21.199c1.241-3.284,0.037-6.99-2.897-8.918c-6.368-4.184-10.169-11.218-10.169-18.816
		S261.551,152.118,267.919,147.934z M287.75,166.75c0-15.609,6.895-30.301,18.49-40.318c8.764,27.939,34.961,47.818,65.135,47.818
		c7.775,0,15.48-1.331,22.754-3.899C392.272,198.041,369.152,220,341,220C311.638,220,287.75,196.112,287.75,166.75z"/>
	<path style="fill:#BC6190;" d="M421.021,312.889C398.284,330.898,370.131,340.75,341,340.75c-29.146,0-57.313-9.861-80.056-27.888
		c-0.437,0.432-0.877,0.861-1.308,1.301c-2.842,2.897-7.452,2.991-10.419,0.266c-3.546,4.082-6.814,8.407-9.795,12.94
		C251.208,346.828,258,369.635,258,394h197C455,362.294,441.984,333.574,421.021,312.889z"/>
	<path style="fill:#9B7064;" d="M409.435,302.885C390.363,288.524,366.659,280,341,280c-25.073,0-48.855,8.015-68.49,22.844
		c19.691,14.824,43.69,22.906,68.49,22.906C365.777,325.75,389.755,317.683,409.435,302.885z"/>
	<path style="fill:#3E2C3A;" d="M426.776,297.74c-0.324-0.345-0.672-0.655-1.042-0.925C403.052,277.013,373.404,265,341,265
		c-34.909,0-67.607,13.729-92.07,38.657c-2.901,2.956-2.856,7.705,0.1,10.606c0.06,0.059,0.125,0.109,0.187,0.166
		c2.967,2.725,7.577,2.631,10.419-0.266c0.432-0.44,0.871-0.869,1.308-1.301c22.743,18.027,50.911,27.888,80.056,27.888
		c29.131,0,57.284-9.852,80.021-27.861C441.984,333.574,455,362.294,455,394c0,4.142,3.358,7.5,7.5,7.5s7.5-3.358,7.5-7.5
		C470,355.773,453.28,321.382,426.776,297.74z M341,280c25.659,0,49.363,8.524,68.435,22.885
		c-19.68,14.798-43.658,22.865-68.435,22.865c-24.8,0-48.799-8.082-68.49-22.906C292.145,288.015,315.927,280,341,280z"/>
	<path style="fill:#C981A6;" d="M44.265,296.815C66.947,277.013,96.596,265,129,265c32.404,0,62.052,12.013,84.734,31.815
		c0.37,0.27,0.718,0.58,1.042,0.925c1.698,1.515,3.358,3.071,4.973,4.672v-22.15c-4.142,0-7.5-3.358-7.5-7.5V166.75
		c0-45.904-37.346-83.25-83.25-83.25s-83.25,37.346-83.25,83.25v106.012c0,4.142-3.358,7.5-7.5,7.5v22.15
		c1.616-1.601,3.276-3.158,4.974-4.672C43.548,297.395,43.895,297.085,44.265,296.815z M95.436,107.33
		c2.172-1.23,4.815-1.298,7.048-0.181c2.233,1.117,3.764,3.271,4.083,5.748c3.413,26.425,26.115,46.353,52.807,46.353
		c9.175,0,18.223-2.374,26.164-6.863c2.174-1.229,4.817-1.295,7.048-0.179c2.232,1.118,3.763,3.273,4.082,5.749
		c0.386,2.996,0.582,5.955,0.582,8.793c0,37.633-30.617,68.25-68.25,68.25s-68.25-30.617-68.25-68.25
		C60.75,142.207,74.041,119.439,95.436,107.33z"/>
	<path style="fill:#F6E3DE;" d="M129,220c28.152,0,51.272-21.959,53.129-49.649c-7.274,2.568-14.979,3.899-22.754,3.899
		c-30.174,0-56.372-19.879-65.135-47.818c-11.595,10.017-18.49,24.709-18.49,40.318C75.75,196.112,99.638,220,129,220z"/>
	<path style="fill:#3E2C3A;" d="M129,235c37.633,0,68.25-30.617,68.25-68.25c0-2.838-0.196-5.797-0.582-8.793
		c-0.319-2.476-1.849-4.631-4.082-5.749c-2.231-1.117-4.875-1.05-7.048,0.179c-7.941,4.49-16.988,6.863-26.164,6.863
		c-26.692,0-49.394-19.928-52.807-46.353c-0.319-2.477-1.851-4.631-4.083-5.748c-2.233-1.117-4.876-1.05-7.048,0.181
		c-21.395,12.109-34.686,34.877-34.686,59.42C60.75,204.383,91.367,235,129,235z M94.24,126.432
		c8.764,27.939,34.961,47.818,65.135,47.818c7.775,0,15.48-1.331,22.754-3.899C180.272,198.041,157.152,220,129,220
		c-29.362,0-53.25-23.888-53.25-53.25C75.75,151.141,82.645,136.449,94.24,126.432z"/>
	<path style="fill:#3E2C3A;" d="M45.75,272.762V166.75c0-45.904,37.346-83.25,83.25-83.25s83.25,37.346,83.25,83.25v106.012
		c0,4.142,3.358,7.5,7.5,7.5s7.5-3.358,7.5-7.5V166.75c0-54.175-44.075-98.25-98.25-98.25s-98.25,44.075-98.25,98.25v106.012
		c0,4.142,3.358,7.5,7.5,7.5S45.75,276.904,45.75,272.762z"/>
	<path style="fill:#98AE9F;" d="M209.021,312.889C186.284,330.898,158.131,340.75,129,340.75s-57.284-9.852-80.021-27.861
		C28.016,333.574,15,362.294,15,394h228C243,362.294,229.984,333.574,209.021,312.889z"/>
	<path style="fill:#F6E3DE;" d="M197.435,302.885C178.363,288.524,154.659,280,129,280s-49.363,8.524-68.435,22.885
		c19.68,14.798,43.658,22.865,68.435,22.865S177.755,317.683,197.435,302.885z"/>
	<path style="fill:#3E2C3A;" d="M219.75,302.412c-1.616-1.601-3.275-3.157-4.973-4.672c-0.325-0.345-0.672-0.655-1.042-0.925
		C191.052,277.013,161.404,265,129,265c-32.404,0-62.053,12.013-84.735,31.815c-0.37,0.27-0.717,0.58-1.041,0.924
		c-1.698,1.515-3.358,3.071-4.974,4.672C14.645,325.803,0,358.222,0,394c0,4.142,3.358,7.5,7.5,7.5s7.5-3.358,7.5-7.5
		c0-31.706,13.016-60.426,33.979-81.111C71.716,330.898,99.869,340.75,129,340.75s57.284-9.852,80.021-27.861
		C229.984,333.574,243,362.294,243,394c0,4.142,3.358,7.5,7.5,7.5s7.5-3.358,7.5-7.5c0-24.365-6.792-47.172-18.579-66.632
		C233.9,318.252,227.28,309.874,219.75,302.412z M129,280c25.659,0,49.363,8.524,68.435,22.885
		c-19.68,14.798-43.658,22.865-68.435,22.865s-48.755-8.067-68.435-22.865C79.637,288.524,103.341,280,129,280z"/>
</g>
<g>
</g>
<g>
</g>
<g>
</g>
<g>
</g>
<g>
</g>
<g>
</g>
<g>
</g>
<g>
</g>
<g>
</g>
<g>
</g>
<g>
</g>
<g>
</g>
<g>
</g>
<g>
</g>
<g>
</g>
</svg>
